<svg xmlns="http://www.w3.org/2000/svg" xmlns:xlink="http://www.w3.org/1999/xlink" width="3840" height="2160" viewBox="0 0 3840 2160">
  <defs>
    <linearGradient id="linear-gradient" x1="-0.561" y1="-0.521" x2="1.05" y2="1.038" gradientUnits="objectBoundingBox">
      <stop offset="0" stop-color="#57534e"/>
      <stop offset="1" stop-color="#1c1917"/>
    </linearGradient>
    <linearGradient id="linear-gradient-2" x1="0.881" y1="-0.222" x2="0.399" y2="1.036" gradientUnits="objectBoundingBox">
      <stop offset="0" stop-color="#2f434d"/>
      <stop offset="1" stop-color="#7c9099"/>
    </linearGradient>
    <clipPath id="clip-homeCurve">
      <rect width="3840" height="2160"/>
    </clipPath>
  </defs>
  <g id="homeCurve" clip-path="url(#clip-homeCurve)">
    <rect id="Rectangle_16" data-name="Rectangle 16" width="3840" height="2160" fill="url(#linear-gradient)"/>
    <path id="Path_20" data-name="Path 20" d="M-111.428,1413.547s260.663-395.968,681.3-431.386,594.151,415.07,1001.262,289.713,281.356-513.764,627.182-791.14,517.345-87.551,756.12-318.366c181.469-175.42-152.976-370.9,50.013-407.423,64.528-11.611,727.112,81.1,772.956,81.1,0,0-110.227,412.682-343.828,550.774s-343.831-12.733-663.794,124.163,105.857,464.417-144.857,780-423.029,487.1-858,482.325-427.407-534.458-881.875-501.427S-63.673,2249.258-60.49,2254.034-111.428,1413.547-111.428,1413.547Z" transform="translate(-41 -26.996)" fill="url(#linear-gradient-2)"/>
  </g>
</svg>
