<svg xmlns="http://www.w3.org/2000/svg" xmlns:xlink="http://www.w3.org/1999/xlink" width="2192" height="2192" viewBox="0 0 2192 2192">
  <defs>
    <linearGradient id="linear-gradient" x1="0.947" y1="-0.107" x2="0.668" y2="0.48" gradientUnits="objectBoundingBox">
      <stop offset="0" stop-color="#d6d3d1"/>
      <stop offset="1" stop-color="#e7e5e4"/>
    </linearGradient>
    <clipPath id="clip-ML">
      <rect width="2192" height="2192"/>
    </clipPath>
  </defs>
  <g id="ML" clip-path="url(#clip-ML)">
    <g id="Group_19" data-name="Group 19" transform="translate(-0.086 0.497)">
      <g id="Group_5" data-name="Group 5" transform="translate(431.045 526.955)">
        <path id="icons8_artificial_intelligence" d="M318.832,3a70.388,70.388,0,0,0-70.407,70.407c0,.6.206,1.189.206,1.788-5.914-.669-11.718-1.788-17.808-1.788A158.429,158.429,0,0,0,72.407,231.823c0,16.581,3.223,32.239,7.976,47.236a176.553,176.553,0,0,0-63.394,75.976H213.221V274.867a70.408,70.408,0,1,1,70.407,0V390.239a35.194,35.194,0,0,1-35.2,35.2H2A175.756,175.756,0,0,0,80.383,571.827c-4.752,15-7.976,30.655-7.976,47.236,0,82.024,62.587,148.633,142.465,156.765a87.9,87.9,0,0,0,174.368-15.951V636.665H309.07a70.408,70.408,0,1,1,0-70.407h80.169V73.407A70.388,70.388,0,0,0,318.832,3ZM530.054,3a70.388,70.388,0,0,0-70.407,70.407V214.222h80.169a70.408,70.408,0,1,1,0,70.407H459.646V759.877a87.9,87.9,0,0,0,174.367,15.951c62.028-6.3,115.13-46.613,134.351-103.96h-167.9a35.194,35.194,0,0,1-35.2-35.2V556.5a70.408,70.408,0,1,1,70.407,0v44.966H775.173c-3.379-32.951-12.79-47.1-12.79-47.1,49.672-21.791,84.5-71.291,84.5-128.919A175.758,175.758,0,0,0,768.5,279.059c4.753-15,7.977-30.655,7.977-47.236A158.429,158.429,0,0,0,618.063,73.407c-6.09,0-11.9,1.119-17.81,1.788,0-.6.208-1.189.208-1.788A70.388,70.388,0,0,0,530.054,3Z" transform="translate(240.542 290.347)" fill="url(#linear-gradient)"/>
      </g>
    </g>
  </g>
</svg>
