<svg xmlns="http://www.w3.org/2000/svg" xmlns:xlink="http://www.w3.org/1999/xlink" width="285.524" height="164.644" viewBox="0 0 285.524 164.644">
  <defs>
    <linearGradient id="linear-gradient" x1="0.5" x2="0.474" y2="1.382" gradientUnits="objectBoundingBox">
      <stop offset="0" stop-color="#e7e5e4"/>
      <stop offset="1" stop-color="#2f434d"/>
    </linearGradient>
  </defs>
  <path id="icons8_swimming" d="M227.139,8a38.417,38.417,0,1,0,38.417,38.417A38.417,38.417,0,0,0,227.139,8ZM101.1,18.976A10.977,10.977,0,0,0,96,20.134L30.144,53.063A10.978,10.978,0,0,0,38.891,73.15l-.129.108L95.38,56.365,119.326,94.2,59.193,128.611c10.834-.615,23.09-5.464,27.141-7.44a33.239,33.239,0,0,1,29.306.065c4.182,2.031,17.872,7.5,29.177,7.5s25-5.461,29.328-7.568a33.239,33.239,0,0,1,29.306.065l-36.1-36.424L108.929,22.449a10.977,10.977,0,0,0-7.825-3.473ZM12.715,139.651A10.977,10.977,0,0,0,8.192,160.51s23.2,12.134,48.815,12.134a104.288,104.288,0,0,0,43.905-10.119,104.286,104.286,0,0,0,43.905,10.119,104.287,104.287,0,0,0,43.905-10.119,104.286,104.286,0,0,0,43.905,10.119c25.611,0,48.815-12.134,48.815-12.134a10.978,10.978,0,1,0-9.819-19.637s-20.7,9.818-39,9.818-39-9.818-39-9.818a10.978,10.978,0,0,0-9.819,0s-20.7,9.818-39,9.818-39-9.818-39-9.818a10.978,10.978,0,0,0-9.819,0s-20.7,9.818-39,9.818-39-9.818-39-9.818A10.977,10.977,0,0,0,12.715,139.651Z" transform="translate(-1.988 -8)" fill="url(#linear-gradient)"/>
</svg>
