<svg xmlns="http://www.w3.org/2000/svg" xmlns:xlink="http://www.w3.org/1999/xlink" width="922" height="438" viewBox="0 0 922 438">
  <defs>
    <linearGradient id="linear-gradient" x1="-0.031" y1="0.989" x2="1.215" y2="-0.094" gradientUnits="objectBoundingBox">
      <stop offset="0" stop-color="#57534e"/>
      <stop offset="1" stop-color="#1c1917"/>
    </linearGradient>
    <clipPath id="clip-terminalBack">
      <rect width="922" height="438"/>
    </clipPath>
  </defs>
  <g id="terminalBack" clip-path="url(#clip-terminalBack)">
    <g id="Group_11" data-name="Group 11" transform="translate(0.417 0.497)">
      <path id="icons8_program" d="M23.833,0A23.826,23.826,0,0,0,0,23.833v214.5a23.826,23.826,0,0,0,23.833,23.833H286a23.826,23.826,0,0,0,23.833-23.833V47.666A23.826,23.826,0,0,0,286,23.833H109.622l-7.355-12.266A23.823,23.823,0,0,0,81.833,0Zm71.5,83.415a11.875,11.875,0,0,1,8.425,3.492l47.666,47.666a11.9,11.9,0,0,1,0,16.85l-47.666,47.666a11.915,11.915,0,0,1-16.85-16.85L126.147,143l-39.24-39.241a11.916,11.916,0,0,1,8.425-20.341Zm71.5,95.332H214.5a11.916,11.916,0,1,1,0,23.833H166.831a11.916,11.916,0,1,1,0-23.833Z" transform="translate(274.929 139.009) rotate(-17)" fill="url(#linear-gradient)"/>
    </g>
  </g>
</svg>
